<svg xmlns="http://www.w3.org/2000/svg" width="92" height="25" viewBox="0 0 92 25">
  <g fill="none" fill-rule="evenodd">
    <path fill="#C3D7B1" d="M18.8061464,13.7049515 C16.9549311,12.6211905 14.8000089,12 12.5,12 C10.5725716,12 8.74703175,12.4362368 7.11672829,13.2153625 C7.03976581,12.6545756 7,12.0819317 7,11.5 C7,6.97720086 9.40204077,3.0154284 13,0.820804928 C16.5979592,3.0154284 19,6.97720086 19,11.5 C19,12.2523591 18.9335315,12.9891936 18.8061464,13.7049515 Z"/>
    <path fill="#C8AAC7" d="M18.8061464,13.7049515 C18.1677571,17.2919658 15.9994455,20.349643 13,22.1791951 C9.86497675,20.2669456 7.63792168,17.0130369 7.11672829,13.2153625 C8.74703175,12.4362368 10.5725716,12 12.5,12 C14.8000089,12 16.9549311,12.6211905 18.8061464,13.7049515 Z"/>
    <path fill="#B8B1EF" d="M13,22.1791951 C11.1060671,23.3344249 8.88076023,24 6.5,24 C4.19999105,24 2.04506893,23.3788095 0.193853649,22.2950485 C0.908998477,18.2767562 3.5440768,14.9227408 7.11672829,13.2153625 C7.63792168,17.0130369 9.86497675,20.2669456 13,22.1791951 Z"/>
    <path fill="#E7B4CA" d="M13,22.1791951 C15.9994455,20.349643 18.1677571,17.2919658 18.8061464,13.7049515 C22.043039,15.5999327 24.3513987,18.9091459 24.8832717,22.7846375 C23.2529683,23.5637632 21.4274284,24 19.5,24 C17.1192398,24 14.8939329,23.3344249 13,22.1791951 Z"/>
    <text fill="#363D40" fill-opacity=".8" font-family="SourceSansPro-Semibold, Source Sans Pro" font-size="16" font-weight="500" letter-spacing="1.28">
      <tspan x="35" y="19">insight</tspan>
    </text>
  </g>
</svg>
